# xmcd CD database file
#
# Track frame offsets:
#	150
#	13697
#	25397
#	52140
#	75110
#	90453
#	115042
#	137502
#	152790
#	175140
#	199381
#	234834
#	260236
#	275814
#
# Disc length: 3916 seconds
#
# Revision: 0
# Processed by: cddbd v1.5.2PL0 Copyright (c) Steve Scherf et al.
# Submitted via: CDex 1.51
#
DISCID=b80f4a0e
DTITLE=Jazz Family - Live ium Schilton
DYEAR=2004
DGENRE=Jazz
TTITLE0=Mabels Dream
TTITLE1=Where did you stay last night
TTITLE2=At the Darktown Strutters Ball
TTITLE3=Early Hours
TTITLE4=Snake Rag
TTITLE5=Texas Moaner Blues
TTITLE6=Farewell Blues
TTITLE7=Sout Rampart Street Blues
TTITLE8=Beale Street Blues
TTITLE9=It's tight like that
TTITLE10=Just a closer walk with thee
TTITLE11=Wabash Blues
TTITLE12=South
TTITLE13=Wolverline Blues
EXTD=YEAR: 2004
EXTT0=
EXTT1=
EXTT2=
EXTT3=
EXTT4=
EXTT5=
EXTT6=
EXTT7=
EXTT8=
EXTT9=
EXTT10=
EXTT11=
EXTT12=
EXTT13=
PLAYORDER=
